<svg xmlns="http://www.w3.org/2000/svg" xmlns:xlink="http://www.w3.org/1999/xlink" width="500" zoomAndPan="magnify" viewBox="0 0 375 374.999991" height="500" preserveAspectRatio="xMidYMid meet" version="1.0"><defs><clipPath id="3fb3d8f615"><path d="M 2.679688 37.5 L 372.320312 37.5 L 372.320312 355.15625 L 2.679688 355.15625 Z M 2.679688 37.5 " clip-rule="nonzero"/></clipPath><clipPath id="534ccc9d14"><path d="M 372.320312 196.328125 L 279.910156 355.15625 L 95.089844 355.15625 L 2.679688 196.328125 L 95.089844 37.5 L 279.910156 37.5 Z M 372.320312 196.328125 " clip-rule="nonzero"/></clipPath><clipPath id="bb443d0154"><path d="M 27.726562 59.761719 L 345.550781 59.761719 L 345.550781 332.894531 L 27.726562 332.894531 Z M 27.726562 59.761719 " clip-rule="nonzero"/></clipPath><clipPath id="4b4a90a2d8"><path d="M 345.550781 196.328125 L 266.09375 332.894531 L 107.179688 332.894531 L 27.726562 196.328125 L 107.179688 59.761719 L 266.09375 59.761719 Z M 345.550781 196.328125 " clip-rule="nonzero"/></clipPath><clipPath id="a78218623c"><path d="M 112.5 121.5 L 262.5 121.5 L 262.5 253.5 L 112.5 253.5 Z M 112.5 121.5 " clip-rule="nonzero"/></clipPath></defs><g clip-path="url(#3fb3d8f615)"><g clip-path="url(#534ccc9d14)"><path fill="#8c52ff" d="M 2.679688 37.5 L 372.320312 37.5 L 372.320312 355.15625 L 2.679688 355.15625 Z M 2.679688 37.5 " fill-opacity="1" fill-rule="nonzero"/></g></g><g clip-path="url(#bb443d0154)"><g clip-path="url(#4b4a90a2d8)"><path fill="#00bf63" d="M 27.726562 59.761719 L 345.550781 59.761719 L 345.550781 332.894531 L 27.726562 332.894531 Z M 27.726562 59.761719 " fill-opacity="1" fill-rule="nonzero"/></g></g><g clip-path="url(#a78218623c)"><path fill="#ffffff" d="M 178.5 157.5 C 178.5 151.828125 178.5 121.5 178.5 121.5 L 112.5 178.5 L 178.5 235.5 L 178.5 199.5 C 238.5 199.5 262.5 253.5 262.5 253.5 C 262.5 205.5 226.5 157.5 178.5 157.5 Z M 178.5 157.5 " fill-opacity="1" fill-rule="nonzero"/></g></svg>