<svg xmlns="http://www.w3.org/2000/svg" xmlns:xlink="http://www.w3.org/1999/xlink" width="500" zoomAndPan="magnify" viewBox="0 0 375 374.999991" height="500" preserveAspectRatio="xMidYMid meet" version="1.0"><defs><clipPath id="d1d8edb617"><path d="M 13.136719 1.015625 L 361.886719 1.015625 L 361.886719 258 L 13.136719 258 Z M 13.136719 1.015625 " clip-rule="nonzero"/></clipPath></defs><g clip-path="url(#d1d8edb617)"><path fill="#1ed266" d="M 99.058594 257.476562 L 158.148438 257.476562 L 158.148438 155.542969 C 158.148438 139.015625 171.570312 125.597656 188.109375 125.597656 C 204.652344 125.597656 218.074219 139.015625 218.074219 155.542969 L 218.074219 257.476562 L 277.164062 257.476562 C 324.265625 257.476562 362.5 219.265625 362.5 172.191406 C 362.5 129.671875 331.21875 94.335938 290.464844 87.867188 C 282.316406 38.757812 239.527344 1.148438 188.109375 1.148438 C 136.691406 1.148438 93.902344 38.757812 85.753906 87.867188 C 45.003906 94.335938 13.722656 129.671875 13.722656 172.195312 C 13.722656 219.265625 51.957031 257.476562 99.058594 257.476562 Z M 99.058594 257.476562 " fill-opacity="1" fill-rule="nonzero"/></g><path fill="#1ed266" d="M 142.445312 283.46875 C 135.492188 276.519531 124.109375 276.519531 117.035156 283.46875 C 110.085938 290.535156 110.085938 301.914062 117.035156 308.863281 L 158.148438 349.945312 C 162.367188 353.539062 175.832031 369.273438 181.039062 371.027344 C 187.695312 373.761719 195.5 372.523438 200.816406 367.195312 L 217.714844 350.304688 L 259.183594 308.863281 C 275.492188 291.894531 250.78125 267.144531 233.777344 283.46875 L 206.089844 311.136719 C 206.046875 289.65625 206.089844 155.542969 206.089844 155.542969 C 205.738281 132.011719 170.515625 131.851562 170.132812 155.542969 C 170.152344 195.511719 170.132812 311.136719 170.132812 311.136719 Z M 142.445312 283.46875 " fill-opacity="1" fill-rule="nonzero"/></svg>