<svg xmlns="http://www.w3.org/2000/svg" xmlns:xlink="http://www.w3.org/1999/xlink" width="500" zoomAndPan="magnify" viewBox="0 0 375 374.999991" height="500" preserveAspectRatio="xMidYMid meet" version="1.0"><defs><clipPath id="2dc35fd544"><path d="M 2.140625 4.839844 L 372.640625 4.839844 L 372.640625 370.089844 L 2.140625 370.089844 Z M 2.140625 4.839844 " clip-rule="nonzero"/></clipPath><clipPath id="f8de5a9817"><path d="M 372.605469 184.734375 C 372.605469 286.910156 289.507812 370.03125 187.378906 370.03125 C 85.230469 370.03125 2.140625 286.910156 2.140625 184.734375 C 2.140625 118.566406 37.015625 58.207031 93.671875 24.960938 L 87.910156 4.863281 L 187.378906 29.675781 L 116.171875 103.453125 L 111.160156 85.96875 C 80.8125 109.371094 62.613281 145.53125 62.613281 184.734375 C 62.613281 253.546875 118.585938 309.535156 187.378906 309.535156 C 256.167969 309.535156 312.128906 253.546875 312.128906 184.734375 Z M 350.515625 55.015625 C 361.757812 43.769531 361.757812 25.542969 350.515625 14.296875 C 344.898438 8.671875 337.527344 5.863281 330.164062 5.863281 C 322.792969 5.863281 315.429688 8.671875 309.808594 14.296875 L 296.671875 27.433594 L 337.378906 68.160156 Z M 201.171875 204.414062 L 325.589844 79.953125 L 284.882812 39.230469 L 160.46875 163.691406 Z M 139.210938 225.679688 L 189.371094 216.21875 L 148.664062 175.5 Z M 139.210938 225.679688 " clip-rule="nonzero"/></clipPath></defs><g clip-path="url(#2dc35fd544)"><g clip-path="url(#f8de5a9817)"><path fill="#1ed266" d="M 2.140625 4.863281 L 2.140625 370.03125 L 372.605469 370.03125 L 372.605469 4.863281 Z M 2.140625 4.863281 " fill-opacity="1" fill-rule="nonzero"/></g></g></svg>