<svg xmlns="http://www.w3.org/2000/svg" xmlns:xlink="http://www.w3.org/1999/xlink" width="50" zoomAndPan="magnify" viewBox="0 0 37.5 37.499999" height="50" preserveAspectRatio="xMidYMid meet" version="1.0"><defs><clipPath id="57e52199ce"><path d="M 0.84375 0.84375 L 17 0.84375 L 17 19 L 0.84375 19 Z M 0.84375 0.84375 " clip-rule="nonzero"/></clipPath><clipPath id="1d6bb3cc82"><path d="M 20 19 L 36.84375 19 L 36.84375 36.84375 L 20 36.84375 Z M 20 19 " clip-rule="nonzero"/></clipPath><clipPath id="3d8befdb12"><path d="M 0.84375 5 L 17 5 L 17 9 L 0.84375 9 Z M 0.84375 5 " clip-rule="nonzero"/></clipPath><clipPath id="cb4fd5c3f0"><path d="M 20 24 L 36.84375 24 L 36.84375 27 L 20 27 Z M 20 24 " clip-rule="nonzero"/></clipPath></defs><path fill="#ffffff" d="M 8.710938 15.828125 C 9.40625 15.828125 9.96875 16.390625 9.96875 17.085938 L 9.96875 27.550781 L 22.109375 27.550781 C 22.800781 27.550781 23.363281 28.113281 23.363281 28.804688 C 23.363281 29.5 22.800781 30.0625 22.109375 30.0625 L 8.710938 30.0625 C 8.019531 30.0625 7.457031 29.5 7.457031 28.804688 L 7.457031 17.085938 C 7.457031 16.390625 8.019531 15.828125 8.710938 15.828125 Z M 8.710938 15.828125 " fill-opacity="1" fill-rule="evenodd"/><path fill="#ffffff" d="M 23.183594 23.136719 C 23.542969 23.730469 23.347656 24.503906 22.753906 24.859375 L 16.175781 28.804688 L 22.753906 32.753906 C 23.347656 33.109375 23.542969 33.878906 23.183594 34.476562 C 22.828125 35.070312 22.058594 35.261719 21.460938 34.90625 L 13.089844 29.882812 C 12.710938 29.65625 12.480469 29.246094 12.480469 28.804688 C 12.480469 28.363281 12.710938 27.957031 13.089844 27.730469 L 21.460938 22.707031 C 22.058594 22.347656 22.828125 22.542969 23.183594 23.136719 Z M 23.183594 23.136719 " fill-opacity="1" fill-rule="evenodd"/><path fill="#ffffff" d="M 4.109375 22.109375 C 4.109375 21.414062 4.671875 20.851562 5.363281 20.851562 L 12.0625 20.851562 C 12.753906 20.851562 13.316406 21.414062 13.316406 22.109375 C 13.316406 22.800781 12.753906 23.363281 12.0625 23.363281 L 5.363281 23.363281 C 4.671875 23.363281 4.109375 22.800781 4.109375 22.109375 Z M 4.109375 22.109375 " fill-opacity="1" fill-rule="evenodd"/><g clip-path="url(#57e52199ce)"><path fill="#1ed266" d="M 2.015625 0.757812 C 1.320312 0.757812 0.757812 1.320312 0.757812 2.015625 L 0.757812 17.085938 C 0.757812 17.777344 1.320312 18.339844 2.015625 18.339844 L 15.410156 18.339844 C 16.105469 18.339844 16.667969 17.777344 16.667969 17.085938 L 16.667969 2.015625 C 16.667969 1.320312 16.105469 0.757812 15.410156 0.757812 Z M 2.015625 0.757812 " fill-opacity="1" fill-rule="nonzero"/></g><g clip-path="url(#1d6bb3cc82)"><path fill="#1ed266" d="M 22.109375 19.179688 C 21.414062 19.179688 20.851562 19.738281 20.851562 20.433594 L 20.851562 35.503906 C 20.851562 36.195312 21.414062 36.757812 22.109375 36.757812 L 35.503906 36.757812 C 36.195312 36.757812 36.757812 36.195312 36.757812 35.503906 L 36.757812 20.433594 C 36.757812 19.738281 36.195312 19.179688 35.503906 19.179688 Z M 22.109375 19.179688 " fill-opacity="1" fill-rule="nonzero"/></g><g clip-path="url(#3d8befdb12)"><path fill="#ffffff" d="M 0.757812 5.78125 L 16.667969 5.78125 L 16.667969 8.292969 L 0.757812 8.292969 Z M 0.757812 5.78125 " fill-opacity="1" fill-rule="evenodd"/></g><g clip-path="url(#cb4fd5c3f0)"><path fill="#ffffff" d="M 20.851562 24.203125 L 36.757812 24.203125 L 36.757812 26.710938 L 20.851562 26.710938 Z M 20.851562 24.203125 " fill-opacity="1" fill-rule="evenodd"/></g></svg>