<svg xmlns="http://www.w3.org/2000/svg" xmlns:xlink="http://www.w3.org/1999/xlink" width="500" zoomAndPan="magnify" viewBox="0 0 375 374.999991" height="500" preserveAspectRatio="xMidYMid meet" version="1.0"><defs><clipPath id="c42b1fe3ae"><path d="M 0.542969 25.546875 L 374.5 25.546875 L 374.5 349.535156 L 0.542969 349.535156 Z M 0.542969 25.546875 " clip-rule="nonzero"/></clipPath></defs><g clip-path="url(#c42b1fe3ae)"><path fill="#562fa8" d="M 0.542969 187.542969 L 38.496094 253.300781 L 38.511719 253.292969 L 94.0625 349.535156 L 280.980469 349.535156 L 336.53125 253.292969 L 336.546875 253.300781 L 374.5 187.542969 L 336.546875 121.78125 L 336.53125 121.789062 L 280.980469 25.546875 L 94.0625 25.546875 L 38.511719 121.789062 L 38.496094 121.78125 Z M 36.527344 187.542969 L 49.441406 165.164062 L 49.457031 165.175781 L 112.054688 56.71875 L 262.988281 56.71875 L 325.585938 165.175781 L 325.601562 165.164062 L 338.515625 187.542969 L 325.601562 209.917969 L 325.585938 209.910156 L 262.988281 318.363281 L 112.054688 318.363281 L 49.457031 209.910156 L 49.441406 209.917969 L 36.527344 187.542969 " fill-opacity="1" fill-rule="evenodd"/></g><path fill="#1ed266" d="M 45.519531 187.542969 L 52.152344 199.03125 L 52.167969 199.023438 L 116.550781 310.570312 L 258.492188 310.570312 L 322.875 199.023438 L 322.886719 199.03125 L 329.519531 187.542969 L 322.886719 176.054688 L 322.875 176.0625 L 258.492188 64.511719 L 116.550781 64.511719 L 52.167969 176.0625 L 52.152344 176.054688 L 45.519531 187.542969 " fill-opacity="1" fill-rule="evenodd"/></svg>