<svg xmlns="http://www.w3.org/2000/svg" xmlns:xlink="http://www.w3.org/1999/xlink" width="500" zoomAndPan="magnify" viewBox="0 0 375 374.999991" height="500" preserveAspectRatio="xMidYMid meet" version="1.0"><defs><g/><clipPath id="6c4a6fb644"><path d="M 4.445312 9.152344 L 370.554688 9.152344 L 370.554688 365.847656 L 4.445312 365.847656 Z M 4.445312 9.152344 " clip-rule="nonzero"/></clipPath><clipPath id="39156981bf"><path d="M 42.695312 9.152344 L 332.304688 9.152344 C 353.429688 9.152344 370.554688 26.277344 370.554688 47.402344 L 370.554688 327.597656 C 370.554688 348.722656 353.429688 365.847656 332.304688 365.847656 L 42.695312 365.847656 C 21.570312 365.847656 4.445312 348.722656 4.445312 327.597656 L 4.445312 47.402344 C 4.445312 26.277344 21.570312 9.152344 42.695312 9.152344 Z M 42.695312 9.152344 " clip-rule="nonzero"/></clipPath></defs><g clip-path="url(#6c4a6fb644)"><g clip-path="url(#39156981bf)"><path fill="#000000" d="M 4.445312 9.152344 L 370.554688 9.152344 L 370.554688 365.847656 L 4.445312 365.847656 Z M 4.445312 9.152344 " fill-opacity="1" fill-rule="nonzero"/></g></g><g fill="#ffffff" fill-opacity="1"><g transform="translate(128.079238, 249.146102)"><g><path d="M 114.140625 0 L 5.171875 0 L 5.171875 -15.625 L 90.046875 -121.765625 L 11.578125 -121.765625 L 11.578125 -138.328125 L 114.140625 -138.328125 L 114.140625 -122.140625 L 28.890625 -16.5625 L 114.140625 -16.5625 Z M 114.140625 0 "/></g></g></g></svg>