<svg xmlns="http://www.w3.org/2000/svg" xmlns:xlink="http://www.w3.org/1999/xlink" width="500" zoomAndPan="magnify" viewBox="0 0 375 374.999991" height="500" preserveAspectRatio="xMidYMid meet" version="1.0"><defs><clipPath id="c796ee4bfb"><path d="M 0 25.078125 L 375 25.078125 L 375 349.828125 L 0 349.828125 Z M 0 25.078125 " clip-rule="nonzero"/></clipPath><clipPath id="9d353537cc"><path d="M 112.5 112.5 L 262.5 112.5 L 262.5 262.5 L 112.5 262.5 Z M 112.5 112.5 " clip-rule="nonzero"/></clipPath></defs><g clip-path="url(#c796ee4bfb)"><path fill="#55ff99" d="M 375 187.480469 L 281.25 349.8125 L 93.75 349.8125 L 0 187.480469 L 93.75 25.148438 L 281.25 25.148438 Z M 375 187.480469 " fill-opacity="1" fill-rule="nonzero"/></g><g clip-path="url(#9d353537cc)"><path fill="#ffffff" d="M 248.4375 173.4375 L 201.5625 173.4375 L 201.5625 126.5625 C 201.5625 118.796875 195.265625 112.5 187.5 112.5 C 179.734375 112.5 173.4375 118.796875 173.4375 126.5625 L 173.4375 173.4375 L 126.5625 173.4375 C 118.796875 173.4375 112.5 179.734375 112.5 187.5 C 112.5 195.265625 118.796875 201.5625 126.5625 201.5625 L 173.4375 201.5625 L 173.4375 248.4375 C 173.4375 256.203125 179.734375 262.5 187.5 262.5 C 195.265625 262.5 201.5625 256.203125 201.5625 248.4375 L 201.5625 201.5625 L 248.4375 201.5625 C 256.203125 201.5625 262.5 195.265625 262.5 187.5 C 262.5 179.734375 256.203125 173.4375 248.4375 173.4375 Z M 248.4375 173.4375 " fill-opacity="1" fill-rule="nonzero"/></g></svg>