<svg xmlns="http://www.w3.org/2000/svg" xmlns:xlink="http://www.w3.org/1999/xlink" width="500" zoomAndPan="magnify" viewBox="0 0 375 374.999991" height="500" preserveAspectRatio="xMidYMid meet" version="1.0"><defs><clipPath id="871e624d8f"><path d="M 0 96.816406 L 375 96.816406 L 375 278.316406 L 0 278.316406 Z M 0 96.816406 " clip-rule="nonzero"/></clipPath><clipPath id="cdc2a998cc"><path d="M 23.207031 134.15625 L 173.207031 134.15625 L 173.207031 240.65625 L 23.207031 240.65625 Z M 23.207031 134.15625 " clip-rule="nonzero"/></clipPath></defs><g clip-path="url(#871e624d8f)"><path fill="#1ed266" d="M 229.664062 96.816406 L 197.839844 96.855469 L 181.964844 124.457031 L 197.910156 152.019531 L 229.730469 151.980469 L 234.878906 143.03125 L 330.140625 143.03125 C 339.722656 143.03125 347.433594 135.3125 347.433594 125.722656 L 347.433594 123.113281 C 347.433594 113.523438 339.722656 105.804688 330.140625 105.804688 L 234.863281 105.804688 Z M 149.027344 101.710938 L 50.027344 101.832031 L 0.632812 187.699219 L 50.238281 273.441406 L 149.238281 273.316406 L 198.632812 187.453125 Z M 256.625 159.976562 L 224.800781 160.015625 L 208.921875 187.617188 L 224.867188 215.175781 L 256.691406 215.136719 L 261.839844 206.191406 L 357.097656 206.191406 C 366.679688 206.191406 374.394531 198.46875 374.394531 188.882812 L 374.394531 186.273438 C 374.394531 176.683594 366.679688 168.964844 357.097656 168.964844 L 261.824219 168.964844 Z M 229.664062 223.132812 L 197.839844 223.171875 L 181.964844 250.773438 L 197.910156 278.335938 L 229.730469 278.296875 L 234.878906 269.347656 L 330.140625 269.347656 C 339.722656 269.347656 347.433594 261.628906 347.433594 252.039062 L 347.433594 249.429688 C 347.433594 239.839844 339.722656 232.121094 330.140625 232.121094 L 234.863281 232.121094 Z M 229.664062 223.132812 " fill-opacity="1" fill-rule="nonzero"/></g><g clip-path="url(#cdc2a998cc)"><path fill="#ffffff" d="M 124.957031 240.65625 L 103.410156 240.65625 C 103.195312 240.65625 102.988281 240.617188 102.789062 240.53125 C 102.585938 240.449219 102.410156 240.332031 102.257812 240.179688 C 102.105469 240.027344 101.988281 239.851562 101.90625 239.652344 C 101.820312 239.453125 101.78125 239.246094 101.78125 239.027344 L 101.78125 215.523438 C 101.78125 215.308594 101.820312 215.097656 101.90625 214.898438 C 101.988281 214.699219 102.105469 214.523438 102.257812 214.371094 C 102.410156 214.21875 102.585938 214.101562 102.789062 214.019531 C 102.988281 213.9375 103.195312 213.894531 103.410156 213.894531 L 124.957031 213.894531 C 139.335938 213.894531 146.324219 208.59375 146.324219 197.6875 C 146.324219 186.777344 139.335938 181.476562 124.957031 181.476562 L 74.226562 181.476562 L 74.226562 200.304688 C 74.226562 200.605469 74.148438 200.882812 73.992188 201.140625 C 73.835938 201.398438 73.625 201.597656 73.359375 201.742188 C 73.09375 201.882812 72.808594 201.945312 72.507812 201.929688 C 72.207031 201.910156 71.929688 201.820312 71.679688 201.652344 L 24.035156 169.441406 C 23.921875 169.367188 23.824219 169.28125 23.734375 169.179688 C 23.644531 169.082031 23.570312 168.972656 23.507812 168.855469 C 23.445312 168.738281 23.398438 168.613281 23.367188 168.484375 C 23.332031 168.355469 23.316406 168.226562 23.316406 168.09375 C 23.316406 167.960938 23.332031 167.828125 23.367188 167.699219 C 23.398438 167.570312 23.445312 167.449219 23.507812 167.332031 C 23.570312 167.210938 23.644531 167.105469 23.734375 167.003906 C 23.824219 166.90625 23.921875 166.820312 24.035156 166.746094 L 71.679688 134.542969 C 71.929688 134.371094 72.207031 134.28125 72.507812 134.265625 C 72.808594 134.25 73.09375 134.3125 73.359375 134.453125 C 73.625 134.59375 73.835938 134.792969 73.992188 135.050781 C 74.148438 135.308594 74.226562 135.589844 74.226562 135.890625 L 74.226562 154.714844 L 124.957031 154.714844 C 160.515625 154.714844 173.132812 177.867188 173.132812 197.6875 C 173.132812 217.507812 160.515625 240.65625 124.957031 240.65625 Z M 124.957031 240.65625 " fill-opacity="1" fill-rule="nonzero"/></g></svg>