<?xml version="1.0" encoding="UTF-8"?>
<svg id="Layer_1" data-name="Layer 1" xmlns="http://www.w3.org/2000/svg" viewBox="0 0 18.82 18.82">
  <defs>
    <style>
      .cls-1 {
        fill: #c1ff72;
        stroke-width: 0px;
      }
    </style>
  </defs>
  <path class="cls-1" d="m18.82,9.41c0,.61-.06,1.23-.18,1.83-.12.61-.3,1.2-.54,1.77-.23.57-.53,1.11-.87,1.63-.34.51-.73.98-1.17,1.42-.44.44-.92.83-1.43,1.17-.52.34-1.06.64-1.63.87-.57.23-1.16.42-1.76.54-.61.12-1.22.18-1.84.18s-1.23-.06-1.83-.18c-.61-.12-1.2-.3-1.77-.54-.57-.23-1.11-.53-1.63-.87-.52-.34-.99-.73-1.43-1.17s-.83-.91-1.17-1.42c-.34-.52-.63-1.06-.87-1.63-.23-.57-.41-1.16-.54-1.77-.12-.6-.18-1.22-.18-1.83s.06-1.23.18-1.84c.13-.6.3-1.19.54-1.77.24-.57.53-1.11.87-1.63s.73-.99,1.17-1.43.91-.83,1.43-1.17c.51-.34,1.05-.63,1.63-.87.57-.23,1.16-.41,1.77-.53.6-.13,1.22-.18,1.83-.18s1.23.06,1.84.18c.6.12,1.19.3,1.76.53.57.24,1.11.53,1.63.87.51.34.99.73,1.43,1.17.43.44.82.91,1.17,1.43s.64,1.06.87,1.63c.23.57.42,1.16.54,1.77.12.61.18,1.22.18,1.84Z"/>
</svg>