<?xml version="1.0" encoding="UTF-8"?>
<svg id="Layer_1" data-name="Layer 1" xmlns="http://www.w3.org/2000/svg" viewBox="0 0 748.97 219.89">
  <defs>
    <style>
      .cls-1 {
        fill: rgba(193, 255, 114, .2);
      }

      .cls-1, .cls-2, .cls-3 {
        stroke-width: 0px;
      }

      .cls-2 {
        fill: #8c52ff;
      }

      .cls-3 {
        fill: #c1ff72;
      }
    </style>
  </defs>
  <path class="cls-2" d="m748.97,24.12c.01-8.68-8.44-15.73-18.88-15.74L26.96,7.63c-10.44-.01-18.92,7.02-18.92,15.7l-.28,180.07c-.01,8.68,8.44,15.73,18.88,15.74l703.14.75c10.44.01,18.91-7.02,18.92-15.7l.28-180.07Z"/>
  <path class="cls-1" d="m748.97,24.12c.01-8.68-8.44-15.73-18.88-15.74L26.96,7.63c-10.44-.01-18.92,7.02-18.92,15.7l-.28,180.07c0,8.68,8.44,15.73,18.89,15.74l703.13.75c10.44.01,18.92-7.02,18.93-15.7l.28-180.07Z"/>
  <path class="cls-2" d="m741.22,16.5c0-8.69-8.44-15.73-18.89-15.74L19.21,0C8.76,0,.29,7.02.28,15.71L0,195.77c-.01,8.69,8.44,15.74,18.88,15.74l703.14.75c10.44.01,18.92-7.02,18.93-15.71l.28-180.06Z"/>
  <path class="cls-3" d="m664.16,148.55h-92.95c-8.52,0-15.5-11.99-15.5-26.62s6.97-26.62,15.5-26.62h92.95c8.52,0,15.49,11.98,15.49,26.62s-6.97,26.62-15.49,26.62Z"/>
  <path class="cls-3" d="m336.23,117.36h-80.92c-7.42,0-13.49-5.06-13.49-11.22s6.07-11.22,13.49-11.22h80.92c7.41,0,13.48,5.05,13.48,11.22s-6.07,11.22-13.48,11.22Z"/>
  <path class="cls-3" d="m552.28,55.28h-80.92c-7.42,0-13.49-5.06-13.49-11.22s6.07-11.22,13.49-11.22h80.92c7.41,0,13.48,5.05,13.48,11.22s-6.07,11.22-13.48,11.22Z"/>
  <path class="cls-3" d="m236.95,62.9h-80.92c-7.42,0-13.49-5.06-13.49-11.22s6.07-11.22,13.49-11.22h80.92c7.41,0,13.48,5.05,13.48,11.22s-6.07,11.22-13.48,11.22Z"/>
  <path class="cls-3" d="m143.34,122.12H62.43c-7.42,0-13.49-5.06-13.49-11.22s6.07-11.22,13.49-11.22h80.92c7.41,0,13.48,5.05,13.48,11.22s-6.07,11.22-13.48,11.22Z"/>
  <path class="cls-3" d="m283.34,177.12h-80.92c-7.42,0-13.49-5.06-13.49-11.22s6.07-11.22,13.49-11.22h80.92c7.41,0,13.48,5.05,13.48,11.22s-6.07,11.22-13.48,11.22Z"/>
  <path class="cls-3" d="m481.34,158.12h-80.92c-7.42,0-13.49-5.06-13.49-11.22s6.07-11.22,13.49-11.22h80.92c7.41,0,13.48,5.05,13.48,11.22s-6.07,11.22-13.48,11.22Z"/>
</svg>