<?xml version="1.0" encoding="UTF-8"?>
<svg id="Layer_1" data-name="Layer 1" xmlns="http://www.w3.org/2000/svg" xmlns:xlink="http://www.w3.org/1999/xlink" viewBox="0 0 344.87 510.82">
  <defs>
    <style>
      .cls-1 {
        clip-path: url(#clippath);
      }

      .cls-2 {
        fill: none;
      }

      .cls-2, .cls-3, .cls-4 {
        stroke-width: 0px;
      }

      .cls-5 {
        clip-path: url(#clippath-1);
      }

      .cls-3 {
        fill: rgba(193, 255, 114, .15);
      }

      .cls-4 {
        fill: #ffaa9a;
      }
    </style>
    <clipPath id="clippath">
      <rect class="cls-2" x="52.41" width="292.45" height="311.4"/>
    </clipPath>
    <clipPath id="clippath-1">
      <rect class="cls-2" x="54.38" y="101.75" width="290.49" height="209.64"/>
    </clipPath>
  </defs>
  <g class="cls-1">
    <path class="cls-4" d="m0,503.3s140.43-244.57,145.29-261.91c4.87-17.35-13.21-69.38-9.03-95.98,4.17-26.59,7.64-53.77,10.43-63.02,2.78-9.25,7.64-34.11,15.99-43.36,8.34-9.25,18.07-1.16,15.99,8.09-2.09,9.25-5.56,31.22-6.96,38.16-1.39,6.94,0,28.33,0,28.33,0,0,5.56-28.33,7.65-37.58,2.08-9.25,10.18-36.26,13.9-44.52,6.26-13.87,24.33-12.72,22.94-2.32-1.39,10.41-9.73,41.05-11.12,49.14-1.39,8.1.69,30.07.69,30.07,0,0,16.42-64.12,18.08-75.16,2.08-13.87,12.51-31.22,22.25-29.49,10.55,1.88,8.34,20.23,4.86,30.07-3.05,8.61-5.56,33.54-7.64,42.21s-1.39,28.91-1.39,28.91c0,0,6.95-42.21,12.51-56.66,5.56-14.46,9.73-34.11,17.38-43.37,7.65-9.25,25.73-2.89,20.86,9.83s-13.21,46.83-15.3,55.5c-2.08,8.68-7.64,60.71-1.39,68.8,6.26,8.1,22.94-12.14,31.28-23.12,8.35-10.99,23.64-15.04,32.68-13.88,9.04,1.16-4.17,20.82-8.34,30.64-4.17,9.83-18.77,54.35-34.06,67.65-15.3,13.3-57.01,44.52-65.35,58.97-8.34,14.45-109.84,251.5-109.84,251.5L0,503.3Z"/>
  </g>
  <g class="cls-5">
    <path class="cls-3" d="m122.36,510.82s101.5-237.05,109.84-251.51c8.35-14.45,50.05-45.68,65.34-58.98,15.3-13.3,29.9-57.81,34.07-67.65,4.17-9.83,17.48-30.26,8.34-30.64-6.44-.27-9.24.24-17.81,2.86-2.67,6.38-10.64,22.91-12.77,27.94-4.17,9.83-21.37,48.52-36.67,61.81-15.29,13.3-57.01,44.52-65.35,58.98-8.34,14.46-152.41,253.04-152.41,253.04"/>
  </g>
</svg>