<?xml version="1.0" encoding="UTF-8"?>
<svg id="Layer_1" data-name="Layer 1" xmlns="http://www.w3.org/2000/svg" xmlns:xlink="http://www.w3.org/1999/xlink" viewBox="0 0 345.91 511.64">
  <defs>
    <style>
      .cls-1 {
        clip-path: url(#clippath);
      }

      .cls-2 {
        fill: none;
      }

      .cls-2, .cls-3, .cls-4 {
        stroke-width: 0px;
      }

      .cls-5 {
        clip-path: url(#clippath-1);
      }

      .cls-3 {
        fill: rgba(193, 255, 114, .15);
      }

      .cls-4 {
        fill: #ffaa9a;
      }
    </style>
    <clipPath id="clippath">
      <rect class="cls-2" x="1.91" width="344" height="344.79"/>
    </clipPath>
    <clipPath id="clippath-1">
      <rect class="cls-2" y="101.75" width="290.49" height="243.03"/>
    </clipPath>
  </defs>
  <g class="cls-1">
    <path class="cls-4" d="m344.97,504.12s-140.43-244.57-145.3-261.91,13.21-69.38,9.04-95.97c-4.17-26.6-7.65-53.77-10.43-63.03-2.78-9.25-7.65-34.11-15.99-43.36-8.35-9.25-18.07-1.16-15.99,8.09,2.08,9.25,5.56,31.22,6.95,38.16,1.39,6.94,0,28.33,0,28.33,0,0-5.56-28.33-7.64-37.58-2.09-9.25-10.18-36.26-13.91-44.52-6.26-13.87-24.33-12.72-22.94-2.32,1.39,10.41,9.73,41.05,11.12,49.14,1.39,8.1-.69,30.07-.69,30.07,0,0-16.42-64.12-18.07-75.16-2.09-13.87-12.51-31.22-22.25-29.49-10.56,1.88-8.35,20.24-4.87,30.07,3.05,8.61,5.56,33.54,7.64,42.21,2.09,8.68,1.4,28.91,1.4,28.91,0,0-6.96-42.21-12.52-56.66-5.56-14.46-9.73-34.11-17.38-43.37-7.64-9.25-25.72-2.89-20.86,9.83,4.87,12.72,13.21,46.83,15.3,55.5,2.09,8.68,7.65,60.71,1.39,68.8-6.26,8.1-22.94-12.14-31.28-23.12-8.35-10.99-23.64-15.04-32.68-13.88-9.04,1.16,4.17,20.82,8.35,30.64,4.17,9.83,18.77,54.35,34.06,67.65,15.29,13.3,57.01,44.52,65.34,58.98,8.35,14.46,109.84,251.5,109.84,251.5l122.36-7.51Z"/>
  </g>
  <g class="cls-5">
    <path class="cls-3" d="m222.62,511.64s-101.5-237.05-109.84-251.51c-8.35-14.45-50.06-45.68-65.35-58.98-15.3-13.3-29.9-57.81-34.07-67.65-4.17-9.83-17.47-30.26-8.34-30.64,6.44-.27,9.24.24,17.81,2.86,2.67,6.38,10.65,22.91,12.77,27.94,4.17,9.83,21.38,48.52,36.68,61.82,15.29,13.3,57,44.52,65.34,58.97,8.34,14.46,152.41,253.04,152.41,253.04"/>
  </g>
</svg>